<?xml version="1.0" encoding="UTF-8"?>
<svg xmlns="http://www.w3.org/2000/svg" xmlns:xlink="http://www.w3.org/1999/xlink" width="16px" height="16px" viewBox="0 0 16 16" version="1.1">
<defs>
<linearGradient id="linear0" gradientUnits="userSpaceOnUse" x1="-566.711426" y1="516.569275" x2="-493.287506" y2="621.429626" gradientTransform="matrix(0.125,0,0,-0.125,74.25,79.125)">
<stop offset="0" style="stop-color:rgb(100%,72.54902%,0%);stop-opacity:1;"/>
<stop offset="1" style="stop-color:rgb(56.862745%,0%,92.156863%);stop-opacity:1;"/>
</linearGradient>
</defs>
<g id="surface1">
<path style=" stroke:none;fill-rule:nonzero;fill:url(#linear0);" d="M 16 8 C 16 3.582031 12.417969 0 8 0 C 3.582031 0 0 3.582031 0 8 C 0 12.417969 3.582031 16 8 16 C 12.417969 16 16 12.417969 16 8 Z M 16 8 "/>
<path style=" stroke:none;fill-rule:nonzero;fill:rgb(100%,100%,100%);fill-opacity:1;" d="M 10.292969 13 L 5.707031 13 C 4.214844 13 3 11.785156 3 10.292969 L 3 5.707031 C 3 4.214844 4.214844 3 5.707031 3 L 10.292969 3 C 11.785156 3 13 4.214844 13 5.707031 L 13 10.292969 C 13 11.785156 11.785156 13 10.292969 13 Z M 5.707031 3.832031 C 4.675781 3.832031 3.832031 4.675781 3.832031 5.707031 L 3.832031 10.292969 C 3.832031 11.324219 4.675781 12.167969 5.707031 12.167969 L 10.292969 12.167969 C 11.324219 12.167969 12.167969 11.324219 12.167969 10.292969 L 12.167969 5.707031 C 12.167969 4.675781 11.324219 3.832031 10.292969 3.832031 Z M 5.707031 3.832031 "/>
<path style=" stroke:none;fill-rule:nonzero;fill:rgb(100%,100%,100%);fill-opacity:1;" d="M 8 10.5 C 6.621094 10.5 5.5 9.378906 5.5 8 C 5.5 6.621094 6.621094 5.5 8 5.5 C 9.378906 5.5 10.5 6.621094 10.5 8 C 10.5 9.378906 9.378906 10.5 8 10.5 Z M 8 6.332031 C 7.082031 6.332031 6.332031 7.082031 6.332031 8 C 6.332031 8.917969 7.082031 9.667969 8 9.667969 C 8.917969 9.667969 9.667969 8.917969 9.667969 8 C 9.667969 7.082031 8.917969 6.332031 8 6.332031 Z M 8 6.332031 "/>
<path style=" stroke:none;fill-rule:nonzero;fill:rgb(100%,100%,100%);fill-opacity:1;" d="M 11.230469 5.34375 C 11.230469 5.027344 10.972656 4.769531 10.65625 4.769531 C 10.339844 4.769531 10.082031 5.027344 10.082031 5.34375 C 10.082031 5.660156 10.339844 5.917969 10.65625 5.917969 C 10.972656 5.917969 11.230469 5.660156 11.230469 5.34375 Z M 11.230469 5.34375 "/>
</g>
</svg>
